<?xml version="1.0" encoding="utf-8"?>
<svg viewBox="120.8993 128.0692 211.7406 217.0819" width="211.741" height="217.082" xmlns="http://www.w3.org/2000/svg">
  <defs>
    <clipPath id="clippath0" transform="">
      <path d="M 0 500 L 500 500 L 500 0 L 0 0 Z" style="fill: none; clip-rule: nonzero;"/>
    </clipPath>
  </defs>
  <g style="clip-path: url('#clippath0');" transform="matrix(0.8202892201759227, 0, 0, -0.8037468085992927, 96.77069681513936, 495.78416089804705)">
    <g transform="translate(305.5385 214.4161)"/>
    <g transform="translate(307.4808 211.7782)"/>
    <g transform="translate(327.394 205.2267)"/>
    <g transform="translate(348.4162 440.7378)"/>
    <g transform="translate(345.9501 437.5792)"/>
    <g transform="translate(333.9954 419.6556)"/>
    <g transform="translate(347.6116 401.1349)"/>
    <g transform="translate(318.9585 385.8148)"/>
    <g transform="translate(329.6773 388.5155)"/>
    <g transform="translate(341.0447 394.3962)"/>
    <g transform="translate(365.6674 333.5889)"/>
    <g transform="translate(364.0549 329.9849)"/>
    <g transform="translate(328.4387 320.6737)"/>
    <g transform="translate(346.2681 320.6737)"/>
    <g transform="translate(339.9801 307.6898)"/>
    <g transform="translate(461.5046 310.4337)"/>
    <g transform="translate(457.1483 309.9048)"/>
    <g transform="translate(418.4391 319.78)"/>
    <g transform="translate(437.2607 319.78)"/>
    <g transform="translate(406.5433 307.7713)"/>
    <g transform="translate(463.2348 407.5817)"/>
    <g transform="translate(459.7286 407.5817)"/>
    <g transform="translate(448.9981 402.2667)"/>
    <g transform="translate(412.5179 418.8716)"/>
    <g transform="translate(432.3434 418.8716)"/>
    <g transform="translate(81.9494 50.3719)"/>
    <g transform="translate(49.6548 91.7582)"/>
    <g transform="translate(60.5996 63.631)"/>
    <g transform="translate(166.4259 70.654)"/>
    <g transform="translate(163.442 69.1122)"/>
    <g transform="translate(170.3789 136.7875)"/>
    <g transform="translate(167.3674 134.7799)"/>
    <g transform="translate(176.0673 135.1162)"/>
    <g transform="translate(292.7554 145.1527)"/>
    <g transform="translate(264.6828 66.9617)"/>
    <g transform="translate(254.6688 112.1845)"/>
    <g transform="translate(248.6435 126.5946)"/>
    <g transform="translate(283.1859 135.0315)"/>
    <g transform="translate(248.5098 95.1292)"/>
    <g transform="translate(241.3886 103.0306)"/>
    <g transform="translate(274.7658 122.3124)"/>
    <g transform="translate(379.0064 150.5064)"/>
    <g transform="translate(359.2646 117.0457)"/>
    <g transform="translate(351.8651 60.0502)"/>
    <g transform="translate(333.1741 96.5157)"/>
    <g transform="translate(361.1211 131.9976)"/>
    <g transform="translate(369.3522 148.1192)"/>
    <g transform="translate(344.2872 85.4372)"/>
    <g transform="translate(254.8538 406.1683)">
      <path d="M 0 0 C 1.905 -3.184 2.179 -5.364 0 -10.174 C -2.179 -14.984 -1.999 -23.351 6.292 -24.968 C 14.584 -26.585 18.563 -23.257 21.58 -16.7 C 24.597 -10.143 23.387 -26.33 23.387 -26.33 L 14.159 -35.709 L 2.119 -33.894 L -7.499 -22.245 L -7.499 -10.174 Z" style="fill: rgb(44, 46, 77); fill-opacity: 1;"/>
    </g>
    <g transform="translate(199.8497 350.9472)">
      <path d="M 0 0 C 0 0 16.467 -5.433 27.713 -2.877 C 47.681 1.661 50.707 31.614 50.707 31.614 L 67.953 23.445 C 67.953 23.445 60.397 -14.996 35.579 -24.056 C 11.23 -32.945 -7.384 -16.492 -7.384 -16.492 Z" style="fill: rgb(156, 208, 228); fill-opacity: 1;"/>
    </g>
    <g transform="translate(284.2237 397.6286)">
      <path d="M 0 0 C -1.83 2.396 -5.642 1.514 -6.169 -1.455 C -7.236 -7.463 -9.643 -16.137 -14.786 -18.046 C -21.908 -20.689 -35.426 -16.188 -32.872 -3.344 C -32.219 -0.062 -30.982 2.577 -29.501 4.687 C -27.447 7.612 -30.586 11.463 -33.731 9.763 C -49.618 1.174 -49.05 -24.198 -34.206 -29.829 C -15.673 -36.861 -4.569 -37.682 1.658 -19.447 C 4.96 -9.778 2.779 -3.636 0 0" style="fill: rgb(81, 125, 151); fill-opacity: 1;"/>
    </g>
    <g transform="translate(224.2775 333.381)">
      <path d="M 0 0 C -1.699 4.747 -3.513 9.43 -5.485 14.053 C -5.926 14.072 -6.365 14.102 -6.805 14.132 C -5.375 9.051 -3.905 3.982 -2.427 -1.09 C -1.662 -3.718 -0.917 -6.352 -0.163 -8.983 C 0.862 -8.901 1.905 -8.774 2.962 -8.608 C 2.014 -5.725 1.023 -2.858 0 0" style="fill: rgb(105, 159, 187); fill-opacity: 1;"/>
    </g>
    <g transform="translate(205.5996 327.0496)">
      <path d="M 0 0 L 1.317 7.737 C 1.929 11.327 2.54 14.917 3.125 18.512 C 3.29 19.526 3.455 20.54 3.62 21.555 C 3.101 21.654 2.593 21.756 2.102 21.859 C 1.838 20.621 1.574 19.383 1.31 18.145 C 0.553 14.595 -0.172 11.038 -0.904 7.482 C -1.355 5.286 -1.807 3.091 -2.258 0.895 C -1.538 0.587 -0.78 0.289 0 0" style="fill: rgb(105, 159, 187); fill-opacity: 1;"/>
    </g>
    <g transform="translate(238.9884 353.5527)">
      <path d="M 0 0 C 2.334 -2.507 4.752 -4.962 7.329 -7.22 C 9.522 -9.142 11.783 -10.985 14.069 -12.796 C 14.715 -11.944 15.338 -11.078 15.935 -10.199 C 13.579 -8.449 11.255 -6.661 8.982 -4.803 C 6.455 -2.736 3.903 -0.699 1.411 1.411 C 1.185 1.603 0.965 1.804 0.742 1.999 C 0.32 1.522 -0.115 1.055 -0.569 0.606 C -0.38 0.405 -0.187 0.201 0 0" style="fill: rgb(105, 159, 187); fill-opacity: 1;"/>
    </g>
    <g transform="translate(245.0386 363.6496)">
      <path d="M 0 0 C -0.176 -0.357 -0.354 -0.714 -0.541 -1.069 C 3.127 -3.055 6.818 -4.98 10.632 -6.72 C 12.444 -7.547 14.287 -8.304 16.123 -9.077 C 16.531 -8.184 16.917 -7.302 17.282 -6.432 C 15.472 -5.835 13.655 -5.257 11.862 -4.611 C 7.891 -3.179 3.907 -1.663 0 0" style="fill: rgb(105, 159, 187); fill-opacity: 1;"/>
    </g>
    <g transform="translate(230.4977 346.3719)">
      <path d="M 0 0 C 1.762 -3.284 3.6 -6.518 5.551 -9.695 C 7.056 -12.147 8.63 -14.557 10.213 -16.96 C 11.097 -16.441 11.957 -15.886 12.789 -15.294 C 11.055 -12.904 9.327 -10.508 7.671 -8.063 C 5.644 -5.07 3.632 -2.061 1.674 0.978 C 1.284 1.583 0.878 2.182 0.479 2.784 C -0.032 2.574 -0.553 2.378 -1.09 2.205 C -0.726 1.47 -0.39 0.726 0 0" style="fill: rgb(105, 159, 187); fill-opacity: 1;"/>
    </g>
    <g transform="translate(69.0839 263.0838)">
      <path d="M 0 0 C -3.004 2.178 -4.114 4.074 -4.003 9.353 C -3.892 14.633 -7.349 22.255 -15.608 20.479 C -23.868 18.703 -26.216 14.077 -26.41 6.862 C -26.604 -0.353 -31.86 15.005 -31.86 15.005 L -27.066 27.258 L -15.284 30.326 L -1.858 23.402 L 2.892 12.304 Z" style="fill: rgb(44, 46, 77); fill-opacity: 1;"/>
    </g>
    <g transform="translate(97.9249 335.4925)">
      <path d="M 0 0 C 0 0 -17.276 -1.484 -26.609 -8.259 C -43.182 -20.288 -34.178 -49.015 -34.178 -49.015 L -53.247 -48.29 C -53.247 -48.29 -61.426 -9.977 -42.174 8.117 C -23.286 25.869 0.299 18.067 0.299 18.067 Z" style="fill: rgb(156, 208, 228); fill-opacity: 1;"/>
    </g>
    <g transform="translate(38.7228 259.3792)">
      <path d="M 0 0 C 2.625 -1.483 5.782 0.828 5.099 3.765 C 3.716 9.708 2.517 18.629 6.493 22.408 C 12.001 27.64 26.199 28.821 28.905 16.007 C 29.597 12.733 29.497 9.821 28.965 7.298 C 28.229 3.8 32.63 1.496 34.851 4.296 C 46.078 18.442 35.574 41.545 19.711 40.882 C -0.094 40.054 -10.625 36.44 -9.176 17.226 C -8.407 7.037 -3.985 2.25 0 0" style="fill: rgb(81, 125, 151); fill-opacity: 1;"/>
    </g>
    <g transform="translate(68.5559 342.0308)">
      <path d="M 0 0 C 3.43 -3.696 6.94 -7.288 10.572 -10.762 C 10.985 -10.605 11.4 -10.46 11.816 -10.314 C 8.503 -6.206 5.157 -2.124 1.803 1.957 C 0.065 4.072 -1.656 6.2 -3.384 8.323 C -4.294 7.844 -5.203 7.317 -6.11 6.748 C -4.104 4.471 -2.064 2.225 0 0" style="fill: rgb(105, 159, 187); fill-opacity: 1;"/>
    </g>
    <g transform="translate(83.2363 355.2004)">
      <path d="M 0 0 L 1.833 -7.631 C 2.684 -11.172 3.534 -14.713 4.411 -18.248 C 4.658 -19.246 4.905 -20.243 5.152 -21.241 C 5.669 -21.128 6.176 -21.022 6.668 -20.923 C 6.423 -19.681 6.179 -18.439 5.935 -17.197 C 5.234 -13.635 4.501 -10.08 3.774 -6.523 C 3.326 -4.327 2.877 -2.131 2.428 0.065 C 1.645 0.066 0.831 0.041 0 0" style="fill: rgb(105, 159, 187); fill-opacity: 1;"/>
    </g>
    <g transform="translate(62.9681 317.698)">
      <path d="M 0 0 C -3.132 1.386 -6.321 2.692 -9.579 3.754 C -12.351 4.658 -15.155 5.463 -17.969 6.229 C -18.228 5.191 -18.46 4.15 -18.662 3.107 C -15.808 2.425 -12.967 1.696 -10.147 0.881 C -7.01 -0.025 -3.863 -0.893 -0.742 -1.852 C -0.458 -1.939 -0.177 -2.038 0.105 -2.13 C 0.305 -1.525 0.52 -0.924 0.761 -0.333 C 0.508 -0.223 0.251 -0.111 0 0" style="fill: rgb(105, 159, 187); fill-opacity: 1;"/>
    </g>
    <g transform="translate(61.3785 306.0351)">
      <path d="M 0 0 C 0.021 0.398 0.044 0.796 0.076 1.196 C -4.077 1.579 -8.228 1.896 -12.418 1.995 C -14.41 2.042 -16.402 2.013 -18.394 2.001 C -18.418 1.02 -18.425 0.057 -18.419 -0.887 C -16.52 -0.724 -14.622 -0.54 -12.72 -0.428 C -8.505 -0.182 -4.246 -0.009 0 0" style="fill: rgb(105, 159, 187); fill-opacity: 1;"/>
    </g>
    <g transform="translate(67.9487 327.6403)">
      <path d="M 0 0 C -2.913 2.326 -5.875 4.576 -8.917 6.729 C -11.266 8.391 -13.661 9.987 -16.062 11.574 C -16.671 10.748 -17.243 9.9 -17.775 9.029 C -15.24 7.514 -12.71 5.991 -10.225 4.395 C -7.183 2.44 -4.15 0.466 -1.154 -1.558 C -0.558 -1.961 0.051 -2.352 0.655 -2.748 C 1.042 -2.354 1.444 -1.968 1.87 -1.598 C 1.246 -1.066 0.644 -0.514 0 0" style="fill: rgb(105, 159, 187); fill-opacity: 1;"/>
    </g>
    <g transform="translate(193.1378 232.797)">
      <path d="M 0 0 C 0 0 -4.236 -25.415 -5.749 -30.558 C -7.261 -35.701 -22.087 -38.122 -24.809 -32.373 C -27.533 -26.625 -32.979 -1.21 -32.979 -1.21 Z" style="fill: rgb(156, 208, 228); fill-opacity: 1;"/>
    </g>
    <g transform="translate(166.9994 204.8106)">
      <path d="M 0 0 C -3.483 0 -5.284 -17.397 1.441 -17.397 L 31.944 -17.397 C 36.508 -17.397 34.346 0 18.134 0 Z" style="fill: rgb(81, 125, 151); fill-opacity: 1;"/>
    </g>
    <g transform="translate(168.8144 197.8459)">
      <path d="M 0 0 C 0.132 0.407 0.358 0.758 0.678 1.055 C 1.087 1.462 1.57 1.743 2.125 1.899 C 2.706 2.055 3.288 2.055 3.869 1.899 C 3.918 1.89 3.965 1.877 4.012 1.858 C 4.433 1.757 4.801 1.564 5.114 1.277 C 5.466 1.049 5.745 0.746 5.948 0.368 C 6.057 0.11 6.166 -0.148 6.275 -0.406 C 6.41 -0.837 6.429 -1.267 6.333 -1.698 C 6.332 -1.991 6.258 -2.263 6.112 -2.516 C 5.981 -2.918 5.758 -3.265 5.441 -3.559 C 5.223 -3.728 5.004 -3.897 4.786 -4.066 C 4.526 -4.216 4.255 -4.325 3.975 -4.399 C 3.939 -4.406 3.903 -4.413 3.869 -4.426 C 3.288 -4.582 2.706 -4.582 2.125 -4.426 C 1.57 -4.27 1.087 -3.989 0.678 -3.583 C 0.507 -3.361 0.336 -3.14 0.165 -2.919 C -0.131 -2.407 -0.281 -1.855 -0.282 -1.264 C -0.299 -0.812 -0.205 -0.391 0 0" style="fill: rgb(44, 46, 77); fill-opacity: 1;"/>
    </g>
    <g transform="translate(180.6597 208.6905)">
      <path d="M 0 0 C 2.725 -0.031 5.457 0.018 8.186 0.093 C 8.358 0.96 8.534 1.87 8.714 2.816 C 5.809 2.739 2.905 2.67 0 2.597 C -5.202 2.467 -10.411 2.33 -15.618 2.213 C -15.492 1.733 -15.366 1.26 -15.241 0.794 C -10.181 0.358 -5.121 0.058 0 0" style="fill: rgb(105, 159, 187); fill-opacity: 1;"/>
    </g>
    <g transform="translate(162.945 219.3214)">
      <path d="M 0 0 C 0.125 -0.524 0.252 -1.055 0.381 -1.588 C 6.167 -2.281 12.181 -2.102 17.876 -1.951 C 21.121 -1.866 24.362 -1.693 27.6 -1.469 C 27.745 -0.665 27.887 0.134 28.028 0.924 C 24.649 0.628 21.265 0.394 17.876 0.248 C 11.963 -0.007 5.943 0.255 0 0" style="fill: rgb(105, 159, 187); fill-opacity: 1;"/>
    </g>
    <g transform="translate(167.2736 228.0659)">
      <path d="M 0 0 C -2.086 -0.104 -4.186 -0.152 -6.276 -0.294 C -6.179 -0.726 -6.076 -1.185 -5.966 -1.672 C -0.194 -2.021 5.822 -1.422 11.465 -1.06 C 16.009 -0.769 20.582 -0.368 25.11 0.279 C 25.23 0.981 25.339 1.622 25.435 2.183 C 20.638 1.702 15.844 1.171 11.041 0.758 C 7.365 0.442 3.685 0.184 0 0" style="fill: rgb(105, 159, 187); fill-opacity: 1;"/>
    </g>
    <g transform="translate(108.2395 232.797)">
      <path d="M 0 0 C 0 0 4.236 -25.415 5.749 -30.558 C 7.261 -35.701 22.087 -38.122 24.809 -32.373 C 27.533 -26.625 32.979 -1.21 32.979 -1.21 Z" style="fill: rgb(156, 208, 228); fill-opacity: 1;"/>
    </g>
    <g transform="translate(134.3779 204.8106)">
      <path d="M 0 0 C 3.483 0 5.284 -17.397 -1.441 -17.397 L -31.944 -17.397 C -36.508 -17.397 -34.346 0 -18.134 0 Z" style="fill: rgb(81, 125, 151); fill-opacity: 1;"/>
    </g>
    <g transform="translate(132.5629 197.8459)">
      <path d="M 0 0 C -0.132 0.407 -0.358 0.758 -0.678 1.055 C -1.087 1.462 -1.57 1.743 -2.125 1.899 C -2.706 2.055 -3.288 2.055 -3.869 1.899 C -3.918 1.89 -3.965 1.877 -4.012 1.858 C -4.433 1.757 -4.801 1.564 -5.114 1.277 C -5.466 1.049 -5.745 0.746 -5.948 0.368 C -6.057 0.11 -6.166 -0.148 -6.275 -0.406 C -6.41 -0.837 -6.429 -1.267 -6.333 -1.698 C -6.332 -1.991 -6.258 -2.263 -6.112 -2.516 C -5.981 -2.918 -5.758 -3.265 -5.441 -3.559 C -5.223 -3.728 -5.004 -3.897 -4.786 -4.066 C -4.526 -4.216 -4.255 -4.325 -3.975 -4.399 C -3.939 -4.406 -3.903 -4.413 -3.869 -4.426 C -3.288 -4.582 -2.706 -4.582 -2.125 -4.426 C -1.57 -4.27 -1.087 -3.989 -0.678 -3.583 C -0.507 -3.361 -0.336 -3.14 -0.165 -2.919 C 0.131 -2.407 0.281 -1.855 0.282 -1.264 C 0.299 -0.812 0.205 -0.391 0 0" style="fill: rgb(44, 46, 77); fill-opacity: 1;"/>
    </g>
    <g transform="translate(120.7176 208.6905)">
      <path d="M 0 0 C -2.725 -0.031 -5.457 0.018 -8.186 0.093 C -8.358 0.96 -8.534 1.87 -8.714 2.816 C -5.809 2.739 -2.905 2.67 0 2.597 C 5.202 2.467 10.411 2.33 15.618 2.213 C 15.492 1.733 15.366 1.26 15.241 0.794 C 10.181 0.358 5.121 0.058 0 0" style="fill: rgb(105, 159, 187); fill-opacity: 1;"/>
    </g>
    <g transform="translate(138.4323 219.3214)">
      <path d="M 0 0 C -0.125 -0.524 -0.252 -1.055 -0.381 -1.588 C -6.167 -2.281 -12.181 -2.102 -17.876 -1.951 C -21.121 -1.866 -24.362 -1.693 -27.6 -1.469 C -27.745 -0.665 -27.887 0.134 -28.028 0.924 C -24.649 0.628 -21.265 0.394 -17.876 0.248 C -11.963 -0.007 -5.943 0.255 0 0" style="fill: rgb(105, 159, 187); fill-opacity: 1;"/>
    </g>
    <g transform="translate(134.1037 228.0659)">
      <path d="M 0 0 C 2.086 -0.104 4.186 -0.152 6.276 -0.294 C 6.179 -0.726 6.076 -1.185 5.966 -1.672 C 0.194 -2.021 -5.822 -1.422 -11.465 -1.06 C -16.009 -0.769 -20.582 -0.368 -25.11 0.279 C -25.23 0.981 -25.339 1.622 -25.435 2.183 C -20.638 1.702 -15.844 1.171 -11.041 0.758 C -7.365 0.442 -3.685 0.184 0 0" style="fill: rgb(105, 159, 187); fill-opacity: 1;"/>
    </g>
    <g transform="translate(211.606 384.891)">
      <path d="M 0 0 C 2.063 4.06 2.784 8.796 1.802 13.033 C -0.193 21.639 -8.725 28.596 -19.382 28.538 C -21.773 28.525 -22.833 26.385 -21.872 25.118 C -22.285 24.463 -22.528 23.685 -22.541 22.826 C -22.691 12.98 -20.861 2.914 -16.707 -6.135 C -16.038 -7.591 -13.862 -8.722 -11.953 -8.327 C -6.805 -7.26 -2.153 -4.237 0 0" style="fill: rgb(81, 125, 151); fill-opacity: 1;"/>
    </g>
    <g transform="translate(88.4238 384.891)">
      <path d="M 0 0 C -2.063 4.06 -2.784 8.796 -1.802 13.033 C 0.193 21.639 8.725 28.596 19.382 28.538 C 21.773 28.525 22.833 26.385 21.872 25.118 C 22.285 24.463 22.528 23.685 22.541 22.826 C 22.691 12.98 20.861 2.914 16.707 -6.135 C 16.038 -7.591 13.862 -8.722 11.953 -8.327 C 6.805 -7.26 2.153 -4.237 0 0" style="fill: rgb(81, 125, 151); fill-opacity: 1;"/>
    </g>
    <g transform="translate(122.0896 447.568)">
      <path d="M 0 0 C -0.415 0.513 -0.833 0.983 -1.306 1.389 C -1.617 1.746 -1.915 2.117 -2.237 2.463 C -3.717 4.057 -6.015 2.403 -4.965 0.493 C -4.774 0.146 -4.556 -0.189 -4.355 -0.531 C -3.902 -1.701 -3.055 -2.835 -2.476 -3.737 C -1.242 -5.663 0.05 -7.538 1.361 -9.413 C 4.081 -13.303 7.026 -17.01 9.826 -20.843 C 11.458 -23.129 14.998 -20.577 13.364 -18.288 C 10.402 -14.137 7.596 -9.902 4.547 -5.813 C 3.074 -3.838 1.55 -1.915 0 0" style="fill: rgb(44, 46, 77); fill-opacity: 1;"/>
    </g>
    <g transform="translate(122.1542 454.5073)">
      <path d="M 0 0 C -0.82 0.652 -1.747 1.064 -2.78 1.234 C -3.039 1.269 -3.299 1.278 -3.562 1.262 C -4.336 1.351 -5.091 1.244 -5.826 0.94 C -6.295 0.689 -6.764 0.438 -7.233 0.186 L -7.248 0.176 C -7.266 0.163 -7.285 0.15 -7.303 0.137 C -7.68 -0.221 -8.058 -0.579 -8.436 -0.938 C -8.945 -1.528 -9.277 -2.196 -9.431 -2.943 C -9.635 -3.409 -9.713 -3.895 -9.667 -4.401 C -9.755 -5.159 -9.65 -5.897 -9.352 -6.618 C -9.347 -6.641 -9.341 -6.664 -9.335 -6.687 C -9.333 -6.697 -9.33 -6.706 -9.328 -6.715 C -9.066 -7.501 -8.632 -8.163 -8.025 -8.701 C -7.876 -8.946 -7.687 -9.143 -7.458 -9.292 C -6.638 -9.944 -5.711 -10.355 -4.678 -10.526 C -3.643 -10.689 -2.634 -10.59 -1.651 -10.229 C -1.181 -9.977 -0.712 -9.726 -0.242 -9.474 C 0.627 -8.842 1.281 -8.036 1.719 -7.055 C 2.062 -6.345 2.214 -5.605 2.175 -4.833 C 2.265 -4.059 2.158 -3.303 1.854 -2.567 C 1.466 -1.545 0.848 -0.69 0 0" style="fill: rgb(44, 46, 77); fill-opacity: 1;"/>
    </g>
    <g transform="translate(181.7733 447.2312)">
      <path d="M 0 0 C 0.31 0.582 0.579 1.151 0.769 1.744 C 0.976 2.17 1.201 2.59 1.395 3.021 C 2.284 5.006 -0.136 6.476 -1.485 4.763 C -1.729 4.452 -1.952 4.12 -2.189 3.802 C -3.089 2.928 -3.802 1.705 -4.407 0.82 C -5.699 -1.068 -6.92 -2.99 -8.134 -4.928 C -10.654 -8.952 -12.916 -13.11 -15.352 -17.184 C -16.82 -19.579 -13.088 -21.841 -11.618 -19.444 C -8.954 -15.096 -6.15 -10.859 -3.576 -6.456 C -2.333 -4.329 -1.157 -2.175 0 0" style="fill: rgb(44, 46, 77); fill-opacity: 1;"/>
    </g>
    <g transform="translate(149.3017 443.2742)">
      <path d="M 0 0 C -37.894 1.404 -48.409 -38.324 -53.653 -71 C -58.897 -103.675 -63.738 -182.743 -60.108 -199.686 C -56.477 -216.629 -41.551 -219.453 -21.784 -219.453 L 34.693 -219.453 C 51.636 -219.453 64.142 -212.999 62.124 -175.078 C 60.107 -137.158 56.477 -93.59 50.829 -60.511 C 45.181 -27.432 43.568 -1.614 0 0" style="fill: rgb(239, 190, 72); fill-opacity: 1;"/>
    </g>
    <g transform="translate(186.1744 328.266)">
      <path d="M 0 0 C -0.128 3.798 -2.666 6.804 -5.766 6.827 L -64.673 7.279 C -67.805 7.303 -70.388 4.277 -70.512 0.44 L -71.363 -25.989 C -71.494 -30.062 -68.815 -33.439 -65.49 -33.39 L -4.892 -32.494 C -1.619 -32.446 0.975 -29.092 0.841 -25.083 Z" style="fill: rgb(239, 139, 62); fill-opacity: 1;"/>
    </g>
    <g transform="translate(182.7743 325.7083)">
      <path d="M 0 0 C -0.115 3.054 -2.409 5.471 -5.21 5.49 L -58.437 5.853 C -61.267 5.872 -63.601 3.439 -63.713 0.354 L -64.482 -20.898 C -64.6 -24.173 -62.179 -26.888 -59.175 -26.849 L -4.42 -26.129 C -1.463 -26.09 0.881 -23.393 0.76 -20.169 Z" style="fill: rgb(44, 46, 77); fill-opacity: 1;"/>
    </g>
    <g transform="translate(110.3104 420.6835)">
      <path d="M 0 0 L 80.828 0 C 74.675 13.156 63.44 21.685 38.991 22.591 C 20.104 23.29 8.021 13.77 0 0" style="fill: rgb(239, 139, 62); fill-opacity: 1;"/>
    </g>
    <g transform="translate(186.8782 223.8933)">
      <path d="M 0 0 C 0.811 0.041 1.607 0.105 2.392 0.187 C 2.512 0.2 2.632 0.213 2.751 0.226 C 3.537 0.316 4.309 0.429 5.065 0.569 C 5.157 0.585 5.247 0.605 5.339 0.622 C 6.126 0.775 6.9 0.951 7.652 1.165 C 7.665 1.169 7.677 1.173 7.69 1.177 C 9.269 1.629 10.768 2.228 12.174 3 C 12.204 3.017 12.236 3.033 12.266 3.05 C 12.953 3.432 13.616 3.857 14.256 4.328 C 14.287 4.351 14.318 4.374 14.349 4.397 C 20.31 8.839 24.178 17.334 24.693 33.007 L 3.289 33.007 C 3.774 45.818 4.554 58.618 5.675 71.389 C 6.398 79.624 7.215 87.85 8.064 96.074 C 8.883 104.001 9.219 112.217 11.273 119.946 C 12.447 124.364 14.398 128.318 17.207 131.592 C 17.071 132.694 16.929 133.779 16.789 134.87 C 14.135 132.335 12.092 129.069 10.693 125.764 C 7.599 118.454 7.115 110.352 6.311 102.549 C 4.532 85.284 2.794 68.003 1.57 50.689 C 1.153 44.802 0.835 38.906 0.62 33.007 L -74.578 33.007 C -74.957 35.575 -75.363 38.139 -75.703 40.713 C -76.885 49.663 -77.84 58.644 -78.555 67.644 C -79.27 76.645 -79.73 85.662 -80.006 94.687 C -80.254 102.775 -79.921 111.137 -82.181 118.993 C -83.318 122.944 -85.186 126.539 -87.78 129.728 C -89.231 131.511 -91.043 133.403 -93.081 134.823 C -93.184 133.966 -93.284 133.087 -93.385 132.204 C -92.137 131.084 -90.925 129.923 -89.861 128.555 C -87.556 125.592 -85.87 122.15 -84.82 118.552 C -82.571 110.844 -82.978 102.628 -82.776 94.687 C -82.331 77.258 -80.91 59.832 -78.677 42.544 C -78.266 39.359 -77.784 36.184 -77.316 33.007 L -98.83 33.007 C -98.772 31.033 -98.691 29.211 -98.586 27.536 C -98.569 27.264 -98.553 26.989 -98.534 26.726 C -98.505 26.306 -98.475 25.898 -98.442 25.5 C -98.403 25.017 -98.36 24.552 -98.316 24.103 C -98.285 23.796 -98.254 23.497 -98.221 23.206 C -98.163 22.698 -98.102 22.212 -98.037 21.757 C -98.012 21.582 -97.987 21.411 -97.961 21.243 C -97.874 20.688 -97.783 20.159 -97.684 19.695 C -94.053 2.752 -79.127 -0.072 -59.36 -0.072 L -2.884 -0.072 C -2.014 -0.072 -1.159 -0.05 -0.314 -0.012 C -0.21 -0.008 -0.104 -0.005 0 0" style="fill: rgb(239, 139, 62); fill-opacity: 1;"/>
    </g>
    <g transform="translate(124.5795 427.2094)">
      <path d="M 0 0 C -0.117 0.418 -0.329 0.781 -0.635 1.089 C -0.801 1.218 -0.968 1.346 -1.134 1.475 C -1.519 1.698 -1.935 1.811 -2.38 1.812 C -2.72 1.825 -3.037 1.754 -3.331 1.599 C -3.637 1.5 -3.902 1.33 -4.125 1.089 C -4.366 0.865 -4.536 0.601 -4.636 0.295 C -4.79 0.001 -4.861 -0.316 -4.848 -0.656 C -4.819 -0.875 -4.789 -1.094 -4.76 -1.312 C -4.643 -1.73 -4.431 -2.094 -4.125 -2.402 C -3.959 -2.53 -3.792 -2.659 -3.626 -2.787 C -3.241 -3.011 -2.826 -3.123 -2.38 -3.124 C -2.04 -3.137 -1.723 -3.066 -1.429 -2.912 C -1.123 -2.812 -0.858 -2.642 -0.635 -2.402 C -0.394 -2.178 -0.224 -1.913 -0.124 -1.607 C 0.03 -1.313 0.101 -0.996 0.088 -0.656 C 0.059 -0.437 0.029 -0.219 0 0" style="fill: rgb(44, 46, 77); fill-opacity: 1;"/>
    </g>
    <g transform="translate(138.5789 427.2094)">
      <path d="M 0 0 C -0.117 0.418 -0.329 0.781 -0.635 1.089 C -0.801 1.218 -0.968 1.346 -1.134 1.475 C -1.519 1.698 -1.935 1.811 -2.38 1.812 C -2.72 1.825 -3.037 1.754 -3.331 1.599 C -3.637 1.5 -3.902 1.33 -4.125 1.089 C -4.366 0.865 -4.536 0.601 -4.636 0.295 C -4.79 0.001 -4.861 -0.316 -4.848 -0.656 C -4.819 -0.875 -4.79 -1.094 -4.76 -1.312 C -4.643 -1.73 -4.431 -2.094 -4.125 -2.402 C -3.959 -2.53 -3.792 -2.659 -3.626 -2.787 C -3.241 -3.011 -2.826 -3.123 -2.38 -3.124 C -2.04 -3.137 -1.723 -3.066 -1.429 -2.912 C -1.123 -2.812 -0.858 -2.642 -0.635 -2.402 C -0.394 -2.178 -0.224 -1.913 -0.124 -1.607 C 0.03 -1.313 0.101 -0.996 0.088 -0.656 C 0.059 -0.437 0.029 -0.219 0 0" style="fill: rgb(44, 46, 77); fill-opacity: 1;"/>
    </g>
    <g transform="translate(152.5782 427.2094)">
      <path d="M 0 0 C -0.117 0.418 -0.329 0.781 -0.635 1.089 C -0.801 1.218 -0.968 1.346 -1.134 1.475 C -1.519 1.698 -1.935 1.811 -2.38 1.812 C -2.72 1.825 -3.037 1.754 -3.331 1.599 C -3.637 1.5 -3.902 1.33 -4.125 1.089 C -4.366 0.865 -4.536 0.601 -4.636 0.295 C -4.79 0.001 -4.861 -0.316 -4.848 -0.656 C -4.819 -0.875 -4.789 -1.094 -4.76 -1.312 C -4.643 -1.73 -4.431 -2.094 -4.125 -2.402 C -3.959 -2.53 -3.792 -2.659 -3.626 -2.787 C -3.241 -3.011 -2.826 -3.123 -2.38 -3.124 C -2.04 -3.137 -1.723 -3.066 -1.429 -2.912 C -1.123 -2.812 -0.858 -2.642 -0.635 -2.402 C -0.394 -2.178 -0.224 -1.913 -0.124 -1.607 C 0.03 -1.313 0.101 -0.996 0.088 -0.656 C 0.059 -0.437 0.029 -0.219 0 0" style="fill: rgb(44, 46, 77); fill-opacity: 1;"/>
    </g>
    <g transform="translate(166.5776 427.2094)">
      <path d="M 0 0 C -0.117 0.418 -0.329 0.781 -0.635 1.089 C -0.801 1.218 -0.968 1.346 -1.134 1.475 C -1.519 1.698 -1.935 1.811 -2.38 1.812 C -2.72 1.825 -3.037 1.754 -3.331 1.599 C -3.637 1.5 -3.902 1.33 -4.125 1.089 C -4.366 0.865 -4.536 0.601 -4.636 0.295 C -4.79 0.001 -4.861 -0.316 -4.848 -0.656 C -4.819 -0.875 -4.79 -1.094 -4.76 -1.312 C -4.643 -1.73 -4.431 -2.094 -4.125 -2.402 C -3.959 -2.53 -3.792 -2.659 -3.626 -2.787 C -3.241 -3.011 -2.826 -3.123 -2.38 -3.124 C -2.04 -3.137 -1.723 -3.066 -1.429 -2.912 C -1.123 -2.812 -0.858 -2.642 -0.635 -2.402 C -0.394 -2.178 -0.224 -1.913 -0.124 -1.607 C 0.03 -1.313 0.101 -0.996 0.088 -0.656 C 0.059 -0.437 0.029 -0.219 0 0" style="fill: rgb(44, 46, 77); fill-opacity: 1;"/>
    </g>
    <g transform="translate(99.0307 250.1306)">
      <path d="M 0 0 C -0.123 0.437 -0.344 0.817 -0.664 1.14 C -0.839 1.274 -1.013 1.409 -1.187 1.544 C -1.59 1.777 -2.025 1.895 -2.491 1.896 C -2.846 1.91 -3.178 1.835 -3.486 1.674 C -3.806 1.57 -4.083 1.391 -4.317 1.14 C -4.569 0.906 -4.747 0.629 -4.851 0.309 C -5.013 0.001 -5.087 -0.331 -5.074 -0.687 C -5.043 -0.916 -5.012 -1.144 -4.981 -1.373 C -4.859 -1.811 -4.637 -2.191 -4.317 -2.513 C -4.143 -2.648 -3.969 -2.782 -3.794 -2.917 C -3.392 -3.151 -2.957 -3.268 -2.491 -3.27 C -2.135 -3.283 -1.803 -3.209 -1.496 -3.047 C -1.175 -2.943 -0.898 -2.765 -0.664 -2.513 C -0.412 -2.279 -0.234 -2.002 -0.13 -1.682 C 0.031 -1.374 0.106 -1.042 0.092 -0.687 C 0.061 -0.458 0.031 -0.229 0 0" style="fill: rgb(44, 46, 77); fill-opacity: 1;"/>
    </g>
    <g transform="translate(116.6551 250.1306)">
      <path d="M 0 0 C -0.123 0.437 -0.344 0.817 -0.664 1.14 C -0.839 1.274 -1.013 1.409 -1.187 1.544 C -1.59 1.777 -2.024 1.895 -2.491 1.896 C -2.846 1.91 -3.178 1.835 -3.486 1.674 C -3.806 1.57 -4.083 1.391 -4.317 1.14 C -4.569 0.906 -4.747 0.629 -4.851 0.309 C -5.013 0.001 -5.087 -0.331 -5.074 -0.687 C -5.043 -0.916 -5.012 -1.144 -4.981 -1.373 C -4.859 -1.811 -4.637 -2.191 -4.317 -2.513 C -4.143 -2.648 -3.969 -2.782 -3.794 -2.917 C -3.391 -3.151 -2.957 -3.268 -2.491 -3.27 C -2.135 -3.283 -1.803 -3.209 -1.496 -3.047 C -1.175 -2.943 -0.898 -2.765 -0.664 -2.513 C -0.412 -2.279 -0.234 -2.002 -0.13 -1.682 C 0.032 -1.374 0.106 -1.042 0.092 -0.687 C 0.061 -0.458 0.031 -0.229 0 0" style="fill: rgb(44, 46, 77); fill-opacity: 1;"/>
    </g>
    <g transform="translate(134.2795 250.1306)">
      <path d="M 0 0 C -0.123 0.437 -0.344 0.817 -0.664 1.14 C -0.839 1.274 -1.013 1.409 -1.187 1.544 C -1.59 1.777 -2.024 1.895 -2.491 1.896 C -2.846 1.91 -3.178 1.835 -3.486 1.674 C -3.806 1.57 -4.083 1.391 -4.317 1.14 C -4.569 0.906 -4.747 0.629 -4.851 0.309 C -5.013 0.001 -5.087 -0.331 -5.074 -0.687 C -5.043 -0.916 -5.012 -1.144 -4.981 -1.373 C -4.859 -1.811 -4.637 -2.191 -4.317 -2.513 C -4.143 -2.648 -3.969 -2.782 -3.794 -2.917 C -3.391 -3.151 -2.957 -3.268 -2.491 -3.27 C -2.135 -3.283 -1.803 -3.209 -1.496 -3.047 C -1.175 -2.943 -0.898 -2.765 -0.664 -2.513 C -0.412 -2.279 -0.234 -2.002 -0.13 -1.682 C 0.032 -1.374 0.106 -1.042 0.092 -0.687 C 0.061 -0.458 0.031 -0.229 0 0" style="fill: rgb(44, 46, 77); fill-opacity: 1;"/>
    </g>
    <g transform="translate(151.9039 250.1306)">
      <path d="M 0 0 C -0.123 0.437 -0.344 0.817 -0.664 1.14 C -0.839 1.274 -1.013 1.409 -1.187 1.544 C -1.59 1.777 -2.024 1.895 -2.491 1.896 C -2.846 1.91 -3.178 1.835 -3.486 1.674 C -3.806 1.57 -4.083 1.391 -4.317 1.14 C -4.569 0.906 -4.747 0.629 -4.851 0.309 C -5.013 0.001 -5.087 -0.331 -5.074 -0.687 C -5.043 -0.916 -5.012 -1.144 -4.981 -1.373 C -4.859 -1.811 -4.637 -2.191 -4.317 -2.513 C -4.143 -2.648 -3.969 -2.782 -3.794 -2.917 C -3.391 -3.151 -2.957 -3.268 -2.491 -3.27 C -2.135 -3.283 -1.803 -3.209 -1.496 -3.047 C -1.175 -2.943 -0.898 -2.765 -0.664 -2.513 C -0.412 -2.279 -0.234 -2.002 -0.13 -1.682 C 0.032 -1.374 0.106 -1.042 0.092 -0.687 C 0.061 -0.458 0.031 -0.229 0 0" style="fill: rgb(44, 46, 77); fill-opacity: 1;"/>
    </g>
    <g transform="translate(169.5283 250.1306)">
      <path d="M 0 0 C -0.123 0.437 -0.344 0.817 -0.664 1.14 C -0.839 1.274 -1.013 1.409 -1.187 1.544 C -1.59 1.777 -2.024 1.895 -2.491 1.896 C -2.846 1.91 -3.178 1.835 -3.486 1.674 C -3.806 1.57 -4.083 1.391 -4.317 1.14 C -4.569 0.906 -4.747 0.629 -4.851 0.309 C -5.013 0.001 -5.087 -0.331 -5.074 -0.687 C -5.043 -0.916 -5.012 -1.144 -4.981 -1.373 C -4.859 -1.811 -4.637 -2.191 -4.317 -2.513 C -4.143 -2.648 -3.969 -2.782 -3.794 -2.917 C -3.391 -3.151 -2.957 -3.268 -2.491 -3.27 C -2.135 -3.283 -1.803 -3.209 -1.496 -3.047 C -1.175 -2.943 -0.898 -2.765 -0.664 -2.513 C -0.412 -2.279 -0.234 -2.002 -0.13 -1.682 C 0.032 -1.374 0.106 -1.042 0.092 -0.687 C 0.061 -0.458 0.031 -0.229 0 0" style="fill: rgb(44, 46, 77); fill-opacity: 1;"/>
    </g>
    <g transform="translate(187.1527 250.1306)">
      <path d="M 0 0 C -0.123 0.437 -0.344 0.817 -0.664 1.14 C -0.839 1.274 -1.013 1.409 -1.187 1.544 C -1.59 1.777 -2.025 1.895 -2.491 1.896 C -2.846 1.91 -3.178 1.835 -3.486 1.674 C -3.806 1.57 -4.083 1.391 -4.317 1.14 C -4.569 0.906 -4.747 0.629 -4.851 0.309 C -5.013 0.001 -5.087 -0.331 -5.074 -0.687 C -5.043 -0.916 -5.012 -1.144 -4.981 -1.373 C -4.859 -1.811 -4.637 -2.191 -4.317 -2.513 C -4.143 -2.648 -3.969 -2.782 -3.794 -2.917 C -3.392 -3.151 -2.957 -3.268 -2.491 -3.27 C -2.135 -3.283 -1.803 -3.209 -1.496 -3.047 C -1.175 -2.943 -0.898 -2.765 -0.664 -2.513 C -0.412 -2.279 -0.234 -2.002 -0.13 -1.682 C 0.031 -1.374 0.106 -1.042 0.092 -0.687 C 0.061 -0.458 0.031 -0.229 0 0" style="fill: rgb(44, 46, 77); fill-opacity: 1;"/>
    </g>
    <g transform="translate(204.7771 250.1306)">
      <path d="M 0 0 C -0.123 0.437 -0.344 0.817 -0.664 1.14 C -0.838 1.274 -1.013 1.409 -1.187 1.544 C -1.59 1.777 -2.024 1.895 -2.491 1.896 C -2.846 1.91 -3.178 1.835 -3.486 1.674 C -3.806 1.57 -4.083 1.391 -4.317 1.14 C -4.569 0.906 -4.747 0.629 -4.851 0.309 C -5.013 0.001 -5.087 -0.331 -5.074 -0.687 C -5.043 -0.916 -5.012 -1.144 -4.981 -1.373 C -4.859 -1.811 -4.637 -2.191 -4.317 -2.513 C -4.143 -2.648 -3.969 -2.782 -3.794 -2.917 C -3.391 -3.151 -2.957 -3.268 -2.491 -3.27 C -2.135 -3.283 -1.803 -3.209 -1.496 -3.047 C -1.175 -2.943 -0.898 -2.765 -0.664 -2.513 C -0.412 -2.279 -0.234 -2.002 -0.13 -1.682 C 0.032 -1.374 0.106 -1.042 0.092 -0.687 C 0.061 -0.458 0.031 -0.229 0 0" style="fill: rgb(44, 46, 77); fill-opacity: 1;"/>
    </g>
    <g transform="translate(180.5769 427.2094)">
      <path d="M 0 0 C -0.117 0.418 -0.329 0.781 -0.635 1.089 C -0.801 1.218 -0.968 1.346 -1.134 1.475 C -1.519 1.698 -1.935 1.811 -2.38 1.812 C -2.72 1.825 -3.037 1.754 -3.331 1.599 C -3.637 1.5 -3.902 1.33 -4.125 1.089 C -4.366 0.865 -4.536 0.601 -4.636 0.295 C -4.79 0.001 -4.861 -0.316 -4.848 -0.656 C -4.819 -0.875 -4.789 -1.094 -4.76 -1.312 C -4.643 -1.73 -4.431 -2.094 -4.125 -2.402 C -3.959 -2.53 -3.792 -2.659 -3.626 -2.787 C -3.241 -3.011 -2.826 -3.123 -2.38 -3.124 C -2.04 -3.137 -1.723 -3.066 -1.429 -2.912 C -1.123 -2.812 -0.858 -2.642 -0.635 -2.402 C -0.394 -2.178 -0.224 -1.913 -0.124 -1.607 C 0.03 -1.313 0.101 -0.996 0.088 -0.656 C 0.059 -0.437 0.029 -0.219 0 0" style="fill: rgb(44, 46, 77); fill-opacity: 1;"/>
    </g>
    <g transform="translate(188.1871 449.8811)">
      <path d="M 0 0 C 0.28 1.01 0.297 2.024 0.051 3.042 C -0.018 3.293 -0.112 3.537 -0.229 3.772 C -0.449 4.52 -0.842 5.173 -1.409 5.731 C -1.824 6.065 -2.238 6.398 -2.653 6.732 L -2.668 6.742 C -2.687 6.753 -2.706 6.765 -2.725 6.777 C -3.202 6.984 -3.68 7.193 -4.157 7.4 C -4.899 7.638 -5.644 7.683 -6.392 7.534 C -6.9 7.539 -7.378 7.422 -7.826 7.181 C -8.558 6.966 -9.197 6.582 -9.744 6.026 C -9.763 6.012 -9.782 5.997 -9.801 5.983 C -9.809 5.977 -9.816 5.972 -9.824 5.966 C -10.446 5.418 -10.886 4.759 -11.144 3.991 C -11.311 3.758 -11.418 3.507 -11.466 3.238 C -11.746 2.229 -11.763 1.215 -11.517 0.197 C -11.263 -0.819 -10.778 -1.71 -10.061 -2.474 C -9.646 -2.808 -9.232 -3.142 -8.817 -3.476 C -7.895 -4.03 -6.898 -4.317 -5.824 -4.337 C -5.036 -4.376 -4.295 -4.227 -3.6 -3.89 C -2.852 -3.67 -2.199 -3.277 -1.64 -2.709 C -0.85 -1.953 -0.304 -1.05 0 0" style="fill: rgb(44, 46, 77); fill-opacity: 1;"/>
    </g>
    <g transform="translate(180.5424 317.2093)">
      <path d="M 0 0 C -2.951 -0.401 -5.919 -0.424 -8.879 -0.176 C -9.379 2.302 -10.12 4.67 -11.175 6.882 C -11.644 7.866 -12.808 7.509 -13.05 6.51 C -13.601 4.239 -14.22 1.995 -14.846 -0.245 C -15.812 2.561 -16.749 5.384 -17.63 8.233 C -18.013 9.473 -19.403 9.435 -19.72 8.155 C -20.91 3.359 -22.307 -1.356 -23.744 -6.05 C -25.175 -1.089 -26.597 3.882 -27.896 8.891 C -28.173 9.958 -29.214 9.907 -29.681 9.109 C -32.611 4.1 -33.005 -2.203 -34.81 -7.805 C -35.921 -2.435 -36.954 2.956 -37.855 8.385 C -38.029 9.434 -39.436 9.611 -39.778 8.621 C -41.203 4.492 -42.679 0.389 -44.122 -3.73 C -44.816 -1.233 -45.51 1.264 -46.203 3.762 C -46.442 4.622 -47.62 4.959 -47.947 3.975 C -48.469 2.405 -49.024 0.853 -49.547 -0.716 C -52.922 -0.356 -56.36 -0.399 -59.715 -0.932 C -60.718 -1.091 -60.699 -2.828 -59.666 -2.874 C -56.017 -3.036 -52.395 -3.274 -48.758 -3.666 C -48.214 -3.724 -47.806 -3.117 -47.649 -2.564 C -47.454 -1.874 -47.281 -1.174 -47.105 -0.476 C -46.484 -2.88 -45.864 -5.284 -45.243 -7.688 C -44.988 -8.677 -43.694 -8.973 -43.316 -7.924 C -41.918 -4.046 -40.574 -0.139 -39.21 3.758 C -38.321 -1.642 -37.356 -7.023 -36.26 -12.367 C -36.002 -13.627 -34.636 -13.593 -34.141 -12.627 C -31.296 -7.08 -31.373 -0.182 -29.091 5.596 C -27.652 0.1 -26.306 -5.443 -24.975 -10.975 C -24.602 -12.525 -22.946 -12.238 -22.568 -10.885 C -21.211 -6.018 -19.932 -1.12 -18.621 3.766 C -17.754 0.837 -16.859 -2.077 -15.911 -4.969 C -15.458 -6.349 -13.841 -6.408 -13.497 -4.879 C -12.933 -2.375 -12.388 0.135 -11.815 2.634 C -11.354 1.178 -11.009 -0.323 -10.794 -1.91 C -10.737 -2.327 -10.326 -2.786 -9.989 -2.839 C -6.627 -3.363 -3.297 -3.427 0.075 -2.997 C 1.633 -2.798 1.564 0.213 0 0" style="fill: rgb(255, 255, 255); fill-opacity: 1;"/>
    </g>
    <g transform="translate(206.723 391.5766)">
      <path d="M 0 0 C -1.468 6.44 -2.634 12.993 -4.084 19.453 C -4.487 19.654 -4.892 19.855 -5.312 20.033 C -4.793 13.267 -3.577 6.436 -2.295 -0.13 C -1.527 -4.064 -0.673 -7.979 0.231 -11.884 C 1.045 -11.31 1.789 -10.669 2.467 -9.977 C 1.606 -6.661 0.761 -3.34 0 0" style="fill: rgb(156, 208, 228); fill-opacity: 1;"/>
    </g>
    <g transform="translate(98.9066 411.7189)">
      <path d="M 0 0 C -2.157 -4.445 -4.059 -8.982 -5.511 -13.767 C -6.994 -18.651 -8.385 -23.859 -8.994 -29.066 C -8.41 -29.791 -7.77 -30.478 -7.042 -31.097 C -6.028 -25.601 -5.23 -20.075 -3.731 -14.655 C -2.316 -9.541 -0.639 -4.42 1.386 0.526 C 0.913 0.368 0.455 0.186 0 0" style="fill: rgb(156, 208, 228); fill-opacity: 1;"/>
    </g>
    <g transform="translate(190.9403 372.5422)">
      <path d="M 0 0 L -3.525 22.632 C -4.243 27.241 -8.186 30.664 -12.863 30.737 L -67.804 31.6 C -72.533 31.675 -76.613 28.304 -77.418 23.657 L -81.505 0.081 C -82.071 -3.182 -80.905 -6.506 -78.422 -8.706 L -68.697 -17.325 C -66.939 -18.884 -64.669 -19.744 -62.317 -19.744 L -17.95 -19.744 C -15.352 -19.744 -12.865 -18.694 -11.056 -16.835 L -2.595 -8.135 C -0.499 -5.979 0.462 -2.967 0 0" style="fill: rgb(239, 139, 62); fill-opacity: 1;"/>
    </g>
    <g transform="translate(186.1704 373.2204)">
      <path d="M 0 0 L -3.113 20.043 C -3.746 24.125 -7.229 27.156 -11.358 27.221 L -59.87 27.985 C -64.046 28.051 -67.648 25.066 -68.36 20.951 L -71.968 0.072 C -72.468 -2.818 -71.438 -5.762 -69.246 -7.71 L -60.659 -15.343 C -59.107 -16.723 -57.102 -17.485 -55.025 -17.485 L -15.85 -17.485 C -13.556 -17.485 -11.36 -16.556 -9.762 -14.909 L -2.292 -7.204 C -0.44 -5.295 0.408 -2.628 0 0" style="fill: rgb(44, 46, 77); fill-opacity: 1;"/>
    </g>
    <g transform="translate(140.1173 387.661)">
      <path d="M 0 0 C -0.237 1.313 -0.81 2.503 -1.812 3.344 C -2.943 4.293 -4.544 4.674 -5.853 3.805 C -8.9 1.78 -9.572 -4.435 -7.45 -7.306 C -3.544 -12.591 0.954 -5.289 0 0" style="fill: rgb(255, 255, 255); fill-opacity: 1;"/>
    </g>
    <g transform="translate(170.3728 387.661)">
      <path d="M 0 0 C -0.237 1.313 -0.81 2.503 -1.812 3.344 C -2.943 4.293 -4.544 4.674 -5.853 3.805 C -8.9 1.78 -9.572 -4.435 -7.45 -7.306 C -3.544 -12.591 0.954 -5.289 0 0" style="fill: rgb(255, 255, 255); fill-opacity: 1;"/>
    </g>
    <g transform="translate(157.6568 375.1315)">
      <path d="M 0 0 C -0.053 0.073 -0.107 0.147 -0.164 0.215 C -0.214 0.275 -0.346 0.389 -0.446 0.477 C -0.897 0.793 -1.47 1.055 -2.022 0.823 C -2.33 0.694 -2.643 0.573 -2.932 0.405 C -3.062 0.342 -3.181 0.262 -3.287 0.164 C -3.502 -0.004 -3.551 -0.04 -3.432 0.054 C -3.279 0.163 -3.576 -0.041 -3.603 -0.06 C -3.804 -0.195 -4.012 -0.321 -4.225 -0.437 C -4.358 -0.509 -4.493 -0.576 -4.629 -0.642 C -4.656 -0.655 -4.67 -0.66 -4.694 -0.67 C -5.173 -0.85 -5.659 -0.984 -6.163 -1.077 C -6.183 -1.081 -6.174 -1.08 -6.187 -1.082 C -6.2 -1.083 -6.192 -1.082 -6.212 -1.084 C -6.333 -1.094 -6.453 -1.104 -6.575 -1.11 C -6.845 -1.124 -7.116 -1.122 -7.387 -1.105 C -7.482 -1.099 -7.576 -1.091 -7.671 -1.081 C -7.699 -1.076 -7.736 -1.071 -7.786 -1.061 C -8.017 -1.013 -8.247 -0.964 -8.475 -0.899 C -8.616 -0.859 -8.757 -0.815 -8.895 -0.766 C -8.914 -0.76 -9.046 -0.711 -9.101 -0.693 C -9.156 -0.668 -9.278 -0.614 -9.296 -0.605 C -9.403 -0.554 -9.506 -0.498 -9.612 -0.445 C -10.06 -0.219 -10.499 0.007 -10.913 0.294 C -11.255 0.531 -11.802 1.05 -12.361 1.125 C -13.185 1.236 -13.829 0.819 -13.901 -0.047 C -14.011 -1.373 -12.426 -2.719 -11.428 -3.376 C -10.283 -4.13 -8.911 -4.534 -7.563 -4.701 C -6.298 -4.858 -4.972 -4.73 -3.756 -4.345 C -2.357 -3.903 -0.725 -3.156 0 -1.808 C 0.282 -1.283 0.377 -0.516 0 0" style="fill: rgb(255, 255, 255); fill-opacity: 1;"/>
    </g>
    <g transform="translate(157.2108 375.608)">
      <path d="M 0 0 C 0.055 -0.039 0.115 -0.074 0.166 -0.114 C -0.216 0.185 -0.143 0.124 0 0" style="fill: rgb(255, 255, 255); fill-opacity: 1;"/>
    </g>
    <g transform="translate(450.317 128.1886)"/>
    <g transform="translate(422.0499 120.2244)"/>
    <g transform="translate(408.6656 72.3756)"/>
    <g transform="translate(427.7382 125.5782)"/>
    <g transform="translate(421.2582 55.7181)"/>
    <g transform="translate(440.2779 94.3156)"/>
    <g transform="translate(418.0074 93.9264)"/>
    <g transform="translate(458.8662 124.0289)"/>
    <g transform="translate(452.8147 136.0668)"/>
  </g>
</svg>